Coordinates
version=1
nRows=17
nColumns=36
inDegrees=yes

Units are S.I. units (second, meters, Newtons, ...)
If the header above contains a line with 'inDegrees', this indicates whether rotational values are in degrees (yes) or radians (no).

endheader
time	pelvis_tilt	pelvis_list	pelvis_rotation	pelvis_tx	pelvis_ty	pelvis_tz	hip_flexion_r	hip_adduction_r	hip_rotation_r	knee_angle_r	knee_angle_r_beta	ankle_angle_r	subtalar_angle_r	mtp_angle_r	hip_flexion_l	hip_adduction_l	hip_rotation_l	knee_angle_l	knee_angle_l_beta	ankle_angle_l	subtalar_angle_l	mtp_angle_l	lumbar_extension	lumbar_bending	lumbar_rotation	arm_flex_r	arm_add_r	arm_rot_r	elbow_flex_r	pro_sup_r	arm_flex_l	arm_add_l	arm_rot_l	elbow_flex_l	pro_sup_l
      4.94915250	     -9.61046931	      8.14353887	     -7.47351539	      0.21480917	      0.76299255	     -0.07383881	    -20.51056768	    -14.81305389	      9.11223427	     38.01565951	      0.66349843	      4.34345574	     -1.78020622	     -7.49999987	     60.91527171	      3.39933383	    -13.31140682	     72.03760927	      1.25729347	     15.28303226	    -14.45656559	     -7.49999987	    -24.48028611	    -16.63694335	      6.18034292	     17.41675503	    -13.33143448	     -2.54305722	     38.52741731	     86.00096575	     19.30866567	    -13.04639337	      2.87972310	     35.01817194	     73.55004560
      4.96610170	    -10.50109460	      8.06079740	     -7.83421994	      0.22558218	      0.77645295	     -0.07741745	    -19.80190344	    -14.89147199	      9.60502214	     35.91848974	      0.62689591	      0.27537654	     -2.20159496	     -7.49999987	     59.41146401	      3.72702035	    -13.26213816	     69.03810784	      1.20494229	     15.27163402	    -13.77091615	     -7.49999987	    -23.69381784	    -16.76936320	      6.59983418	     17.65192196	    -13.43126480	     -0.94135760	     37.55323383	     85.77981101	     19.07460592	    -13.22986734	      4.28151014	     34.30172893	     73.07194715
      4.98305080	    -11.55543160	      8.21522126	     -7.63746750	      0.23884306	      0.78538697	     -0.07196114	    -19.25402312	    -14.55454842	      9.64789011	     34.06686391	      0.59457894	     -3.96642997	     -3.22398124	     -7.49999987	     58.10003461	      4.04461873	    -13.04518793	     66.44960040	      1.15976431	     15.46771599	    -12.88316513	     -7.49999987	    -22.45596279	    -17.24290580	      6.91426861	     17.06434298	    -13.05935556	     -0.85573257	     36.96983824	     85.93083658	     18.66381236	    -13.36604339	      4.46264753	     34.01197682	     73.02561705
      5.00000000	    -12.58302431	      8.20950632	     -7.65473685	      0.24810858	      0.79668109	     -0.07672096	    -18.18631126	    -14.39985661	      9.95999715	     32.76519109	      0.57186046	     -9.16991460	     -4.03449194	     -7.49999987	     56.91707671	      4.50971423	    -12.57913153	     64.13680631	      1.11939844	     15.76677401	    -12.58184393	     -7.49999987	    -21.08965293	    -17.29454272	      7.47320685	     16.48383966	    -12.72742737	     -1.34184176	     36.18221834	     88.94326851	     18.23641138	    -13.41111501	      5.50620811	     33.18751617	     72.47279674
      5.01694920	    -13.48870384	      8.04665928	     -7.70449827	      0.25731078	      0.80983238	     -0.08342362	    -16.90557772	    -14.43758666	     10.34483458	     31.38438334	      0.54776082	    -13.66658928	     -3.84295769	     -7.49999987	     55.73783484	      5.18818451	    -12.01154959	     61.50057793	      1.07338758	     15.48986494	    -12.42117419	     -7.49999987	    -19.85373665	    -17.00985790	      7.93336709	     15.87505205	    -12.61880472	     -1.09328300	     35.78047534	     87.44964425	     17.33457825	    -13.17870487	      5.10751021	     33.14869042	     71.71168530
      5.03389830	    -13.91920848	      7.63606931	     -7.41475919	      0.26580045	      0.81920465	     -0.08218755	    -15.59896722	    -13.85145603	     10.73779288	     31.22695992	      0.54501327	    -18.74174075	     -3.57915932	     -7.49999987	     53.76874393	      5.73607752	    -11.17805483	     58.51330672	      1.02124986	     15.33426063	    -12.36638173	     -7.49999987	    -19.17948822	    -16.39470988	      8.01829273	     15.63117456	    -12.59965841	     -0.26393345	     35.24273594	     86.43378159	     16.85152196	    -13.03715084	      5.22050613	     32.48111786	     71.06696525
      5.05084750	    -14.23144505	      6.89580370	     -7.02591512	      0.27634208	      0.82951393	     -0.08497816	    -13.90153990	    -12.90936621	     11.00174318	     32.64928350	      0.56983750	    -22.45408793	     -2.77545463	     -7.49999987	     51.83056518	      6.03753537	    -10.01374417	     55.93727010	      0.97628954	     15.46712802	    -11.60351653	     -7.49999987	    -18.86076964	    -15.38382776	      8.12603666	     15.27239848	    -12.61007576	     -0.23993380	     35.16737272	     86.40875440	     16.28680469	    -12.80051206	      5.24189428	     32.40072978	     71.04868582
      5.06779660	    -14.62327553	      6.24636324	     -6.57112551	      0.28930408	      0.84245141	     -0.08181332	    -12.26603082	    -11.39095432	     11.86873459	     33.86364484	      0.59103210	    -26.43716953	     -4.06470140	     -7.49999987	     49.70327684	      6.08334390	     -8.97398898	     53.16635487	      0.92792794	     15.54052501	    -11.03200383	     -7.49999987	    -18.01036504	    -14.74106140	      8.26342419	     14.82919651	    -12.35736834	     -0.01362326	     34.58324415	     85.18141856	     15.71058178	    -12.65137553	      4.68500684	     32.08900239	     70.41538073
      5.08474580	    -14.80889006	      5.18828999	     -6.17738873	      0.29633511	      0.85703777	     -0.07800552	    -10.15003474	     -9.49916454	     11.94268714	     35.75872895	      0.62410756	    -28.57805624	     -3.81874810	     -7.49999987	     47.29272306	      5.49291360	     -7.93502228	     50.01358234	      0.87290168	     15.32215469	    -10.13373050	     -7.49999987	    -17.80185188	    -13.83173133	      8.29667792	     14.70786790	    -12.23254457	      0.35455561	     34.30683971	     89.39844533	     15.15458759	    -12.62358009	      3.61372389	     32.31521160	     73.21412809
      5.10169490	    -14.86852146	      4.00210412	     -5.68578342	      0.30414979	      0.86487918	     -0.08282731	     -7.88198351	     -7.78282518	     11.71768241	     38.44160493	      0.67093258	    -28.23760034	     -3.54386408	     -7.49999987	     45.35594440	      5.16361321	     -6.68798981	     47.54500455	      0.82981687	     15.24039124	     -9.36197958	     -7.49999987	    -17.73065444	    -12.49878990	      8.37480836	     14.25086530	    -12.29000108	      0.35148836	     35.02399720	     88.45774646	     14.54971771	    -12.58947013	      3.59546820	     33.09519172	     72.82098350
      5.11864410	    -14.69065526	      3.33029668	     -5.81987248	      0.31340829	      0.88381889	     -0.07842833	     -5.65822514	     -6.37560143	     12.14246861	     40.55358825	      0.70779364	    -27.93429060	     -5.71809482	     -7.49999987	     42.76580278	      4.65280200	     -6.27365355	     44.17708340	      0.77103556	     13.94463101	     -9.08794629	     -7.49999987	    -17.83765801	    -12.08282542	      8.73253585	     14.49437491	    -12.04759393	      0.52107142	     34.86615346	     88.21272761	     14.56600038	    -12.62766460	      3.32210886	     32.83032375	     72.76309435
      5.13559320	    -14.52649209	      2.39875446	     -5.73809062	      0.31963438	      0.88802567	     -0.08212309	     -3.11876680	     -5.05764539	     11.92999050	     43.50119711	      0.75923912	    -25.84331334	     -7.58425875	     -7.49999987	     40.53470092	      4.26178474	     -5.44246021	     41.43849966	      0.72323826	     13.42493317	     -8.75326522	     -7.49999987	    -17.87927036	    -11.07865069	      8.85751289	     14.66684612	    -12.01306549	      0.77208735	     35.12786424	     87.62533142	     14.34417196	    -12.63965508	      3.18474315	     32.94415300	     72.58058625
      5.15254240	    -14.26193119	      1.76115549	     -5.67882342	      0.32846551	      0.90077714	     -0.08301529	     -0.95530938	     -3.70860004	     12.36097632	     45.92362292	      0.80151842	    -23.19802395	    -10.31821236	     -7.49999987	     38.17705343	      4.04668426	     -4.69946379	     38.73129542	      0.67598863	     12.32832108	     -8.73943391	     -7.49999987	    -17.84184282	    -10.37483708	      8.93963575	     14.90820412	    -11.99758841	      1.12029294	     35.07031469	     87.52912772	     14.30352194	    -12.61681929	      3.08318710	     32.75058326	     72.66666179
      5.16949150	    -13.81411899	      1.13744276	     -5.65822938	      0.33777157	      0.91074847	     -0.08524146	      0.93690541	     -2.35502865	     12.75485037	     47.99689754	      0.83770389	    -20.25190714	    -13.20296584	     -7.49999987	     35.57129998	      3.88880438	     -4.00826169	     35.81406083	      0.62507328	     11.82809942	     -8.31136248	     -7.49999987	    -18.01639121	     -9.56783660	      8.93231623	     15.20236696	    -11.99795635	      1.40305410	     35.26288650	     87.62024725	     14.20527505	    -12.64775245	      3.04498917	     32.59157409	     72.82722158
      5.18644070	    -13.28004132	      0.79024433	     -5.69213405	      0.34716339	      0.91572769	     -0.08885417	      2.91904937	     -1.71071630	     12.46043328	     50.14159410	      0.87513591	    -17.56819069	    -15.61798015	     -7.49999987	     33.15837022	      4.05014872	     -3.46138633	     33.42336220	      0.58334772	     11.42906873	     -7.92185698	     -7.49999987	    -18.24587317	     -8.97191639	      8.81786155	     15.43230386	    -12.04143337	      1.54129750	     35.61363950	     87.62223884	     14.07671291	    -12.69668949	      3.02933311	     32.53625911	     72.90742173
      5.20338980	    -12.90864465	      0.51352676	     -5.66513941	      0.35548148	      0.91748696	     -0.09222840	      5.06100547	     -1.05360432	     12.33843883	     52.12903384	      0.90982328	    -14.50885326	    -17.22098934	     -7.49999987	     31.31181034	      4.30324414	     -2.81711123	     31.69604562	      0.55320036	     11.20995367	     -7.45855203	     -7.49999987	    -18.32449067	     -8.33156738	      8.64057320	     15.57316476	    -12.20287350	      1.57900431	     36.12811605	     87.60063782	     13.84129595	    -12.68013864	      3.03239738	     32.53746444	     72.97276056
      5.22033900	    -12.64783430	      0.12153797	     -5.54984041	      0.35939322	      0.91714993	     -0.09500590	      7.80333829	     -0.40240519	     11.98556540	     54.52681797	      0.95167250	    -11.26164862	    -18.39426835	     -7.49999987	     30.20090312	      4.33523324	     -2.23082425	     30.94279518	      0.54005366	     11.54555357	     -7.38119278	     -7.49999987	    -18.43254018	     -7.46396836	      8.41533536	     15.79255513	    -12.51497934	      1.48427683	     36.86827706	     87.15590641	     13.75279340	    -12.64561022	      3.01412502	     32.92902514	     72.79252440
